<?xml version="1.0" encoding="UTF-8" standalone="no" ?>
<!DOCTYPE svg PUBLIC "-//W3C//DTD SVG 1.1//EN" "http://www.w3.org/Graphics/SVG/1.1/DTD/svg11.dtd">
<svg xmlns="http://www.w3.org/2000/svg" xmlns:xlink="http://www.w3.org/1999/xlink" version="1.1" width="500" height="190" viewBox="0 0 500 190" xml:space="preserve">
<desc>Created with Fabric.js 4.6.0</desc>
<defs>
</defs>
<g transform="matrix(1 0 0 1 338.89 50.16)" style="" id="KJND2dPRAQm_w9frpKPRi"  >
		<text xml:space="preserve" font-family="Nunito" font-size="100" font-style="normal" font-weight="600" line-height="1" style="stroke: none; stroke-width: 1; stroke-dasharray: none; stroke-linecap: butt; stroke-dashoffset: 0; stroke-linejoin: miter; stroke-miterlimit: 4; fill: rgb(226,0,26); fill-rule: nonzero; opacity: 1; white-space: pre;" ><tspan x="-126.31" y="31.41" >Studi</tspan></text>
</g>
<g transform="matrix(1 0 0 1 393.88 139.84)" style="" id="mad72PIh-zQorOaIaFSeP"  >
		<text xml:space="preserve" font-family="Nunito" font-size="100" font-style="normal" font-weight="600" line-height="1" style="stroke: none; stroke-width: 1; stroke-dasharray: none; stroke-linecap: butt; stroke-dashoffset: 0; stroke-linejoin: miter; stroke-miterlimit: 4; fill: rgb(93,105,113); fill-rule: nonzero; opacity: 1; white-space: pre;" ><tspan x="-181.3" y="31.41" >Forum</tspan></text>
</g>
<g transform="matrix(1 0 0 1 118.4 117.96)" id="Z1pcrpoY8Ao11Jn9w9udd"  >
<path style="stroke: none; stroke-width: 1; stroke-dasharray: none; stroke-linecap: butt; stroke-dashoffset: 0; stroke-linejoin: miter; stroke-miterlimit: 4; fill: rgb(125,137,144); fill-rule: nonzero; opacity: 1;" vector-effect="non-scaling-stroke"  transform=" translate(-245.06, -508.36)" d="M 271.0889 441.05367 L 271.0889 477.95071 C 271.0889 479.78735 269.50915000000003 482.81565 267.6725 484.64684 L 230.09218 522.2271499999999 C 229.17385000000002 523.1454799999999 228.23366000000001 523.59372 227.63238 523.59372 C 227.03109 523.59372 226.67578 523.1454799999999 226.67578 522.2271499999999 L 226.67578 526.32683 C 226.67578 528.1634799999999 228.25553 529.7432299999999 230.09218 529.7432299999999 L 311.94895 529.7432299999999 C 313.78560000000004 529.7432299999999 315.36534 528.1634799999999 315.36534 526.32683 L 315.36534 444.3334 C 315.36534 442.49674 313.7856 441.05367 311.94895 441.05367 L 271.0889 441.05367 z M 219.02307000000002 526.32683 C 219.02307000000002 528.1634799999999 217.43786000000003 529.7432299999999 215.60668 529.7432299999999 L 174.74661 529.7432299999999 L 174.74661 574.29298 C 174.74661 575.2112999999999 175.10738 575.65954 175.7032 575.65954 C 176.29903000000002 575.65954 177.10803 575.2112999999999 178.02635 574.29298 L 215.60668 536.7126599999999 C 217.43786 534.87601 219.02307000000002 531.85318 219.02307000000002 530.0165299999999 L 219.02307000000002 526.3268299999999 z" stroke-linecap="round" />
</g>
<g transform="matrix(1 0 0 1 74.05 71.77)" id="WDjsiH0XPRUzoOHP2pGI3"  >
<path style="stroke: none; stroke-width: 1; stroke-dasharray: none; stroke-linecap: butt; stroke-dashoffset: 0; stroke-linejoin: miter; stroke-miterlimit: 4; fill: rgb(226,0,26); fill-rule: nonzero; opacity: 1;" vector-effect="non-scaling-stroke"  transform=" translate(-200.71, -462.17)" d="M 270.1323 394.59072 C 269.52826 394.59072 268.59083 395.03895 267.6725 395.95727999999997 L 230.09218 433.67425999999995 C 228.26100000000002 435.50544999999994 226.67578 438.39707999999996 226.67578 440.23373999999995 L 226.67578 444.3334 L 226.67578 522.2271499999999 C 226.67578 524.06381 228.261 524.06381 230.09218 522.2271499999999 L 267.6725 484.64683999999994 C 269.50915000000003 482.8101899999999 271.0889 479.78734999999995 271.0889 477.95070999999996 L 271.0889 441.05366999999995 L 271.0889 395.95727999999997 C 271.0889 395.03894999999994 270.73643000000004 394.59072 270.13230000000004 394.59072 z M 133.7499 441.05366999999995 C 131.91325 441.05366999999995 130.33351 442.49673999999993 130.33351 444.3333999999999 L 130.33351 526.32683 C 130.33351 528.1634799999999 131.91324999999998 529.7432299999999 133.7499 529.7432299999999 L 215.60667999999998 529.7432299999999 C 217.44332999999997 529.7432299999999 219.02307 528.1634799999999 219.02307 526.32683 L 219.02307 444.3334 C 219.02307 442.49674 217.44333 441.05367 215.60667999999998 441.05367 L 133.74989999999997 441.05367 z" stroke-linecap="round" />
</g>
<g transform="matrix(1 0 0 1 96.26 95)" id="w1kfRrgXVrHpeopjd42v6"  >
<path style="stroke: none; stroke-width: 1; stroke-dasharray: none; stroke-linecap: butt; stroke-dashoffset: 0; stroke-linejoin: miter; stroke-miterlimit: 4; fill: rgb(142,16,22); fill-rule: nonzero; opacity: 1;" vector-effect="non-scaling-stroke"  transform=" translate(-222.92, -485.4)" d="M 230.09218 441.05367 C 228.25553000000002 441.05367 226.67578 442.63341 226.67578 444.47006 L 226.67578 522.2271499999999 C 226.67578 523.1454799999999 227.03131 523.59372 227.63238 523.59372 C 228.23366000000001 523.59372 229.17385000000002 523.1454799999999 230.09218 522.2271499999999 L 267.6725 484.64683999999994 C 269.50915000000003 482.8101899999999 271.0889 479.78189999999995 271.0889 477.95070999999996 L 271.0889 441.05366999999995 L 230.09218 441.05366999999995 z M 218.06648 446.65655000000004 C 217.45973 446.65655000000004 216.525 447.11025000000006 215.60668 448.02310000000006 L 178.02635 485.74008000000003 C 176.19517000000002 487.60953 174.74661 490.46837000000005 174.74661 492.29955 L 174.74661 529.74323 L 215.60668 529.74323 C 217.44333 529.74323 219.02307000000002 528.16348 219.02307000000002 526.3268300000001 L 219.02307000000002 448.0231000000001 C 219.02307000000002 447.1102500000001 218.66754000000003 446.6565500000001 218.06648 446.6565500000001 z" stroke-linecap="round" />
</g>
<g transform="matrix(1 0 0 1 338.89 50.16)" style="" id="KJND2dPRAQm_w9frpKPRi"  >
		<text xml:space="preserve" font-family="Nunito" font-size="100" font-style="normal" font-weight="600" line-height="1" style="stroke: none; stroke-width: 1; stroke-dasharray: none; stroke-linecap: butt; stroke-dashoffset: 0; stroke-linejoin: miter; stroke-miterlimit: 4; fill: rgb(226,0,26); fill-rule: nonzero; opacity: 1; white-space: pre;" ><tspan x="-126.31" y="31.41" >Studi</tspan></text>
</g>
<g transform="matrix(1 0 0 1 393.88 139.84)" style="" id="mad72PIh-zQorOaIaFSeP"  >
		<text xml:space="preserve" font-family="Nunito" font-size="100" font-style="normal" font-weight="600" line-height="1" style="stroke: none; stroke-width: 1; stroke-dasharray: none; stroke-linecap: butt; stroke-dashoffset: 0; stroke-linejoin: miter; stroke-miterlimit: 4; fill: rgb(93,105,113); fill-rule: nonzero; opacity: 1; white-space: pre;" ><tspan x="-181.3" y="31.41" >Forum</tspan></text>
</g>
<g transform="matrix(1 0 0 1 118.4 117.96)" id="Z1pcrpoY8Ao11Jn9w9udd"  >
<path style="stroke: none; stroke-width: 1; stroke-dasharray: none; stroke-linecap: butt; stroke-dashoffset: 0; stroke-linejoin: miter; stroke-miterlimit: 4; fill: rgb(125,137,144); fill-rule: nonzero; opacity: 1;" vector-effect="non-scaling-stroke"  transform=" translate(-245.06, -508.36)" d="M 271.0889 441.05367 L 271.0889 477.95071 C 271.0889 479.78735 269.50915000000003 482.81565 267.6725 484.64684 L 230.09218 522.2271499999999 C 229.17385000000002 523.1454799999999 228.23366000000001 523.59372 227.63238 523.59372 C 227.03109 523.59372 226.67578 523.1454799999999 226.67578 522.2271499999999 L 226.67578 526.32683 C 226.67578 528.1634799999999 228.25553 529.7432299999999 230.09218 529.7432299999999 L 311.94895 529.7432299999999 C 313.78560000000004 529.7432299999999 315.36534 528.1634799999999 315.36534 526.32683 L 315.36534 444.3334 C 315.36534 442.49674 313.7856 441.05367 311.94895 441.05367 L 271.0889 441.05367 z M 219.02307000000002 526.32683 C 219.02307000000002 528.1634799999999 217.43786000000003 529.7432299999999 215.60668 529.7432299999999 L 174.74661 529.7432299999999 L 174.74661 574.29298 C 174.74661 575.2112999999999 175.10738 575.65954 175.7032 575.65954 C 176.29903000000002 575.65954 177.10803 575.2112999999999 178.02635 574.29298 L 215.60668 536.7126599999999 C 217.43786 534.87601 219.02307000000002 531.85318 219.02307000000002 530.0165299999999 L 219.02307000000002 526.3268299999999 z" stroke-linecap="round" />
</g>
<g transform="matrix(1 0 0 1 74.05 71.77)" id="WDjsiH0XPRUzoOHP2pGI3"  >
<path style="stroke: none; stroke-width: 1; stroke-dasharray: none; stroke-linecap: butt; stroke-dashoffset: 0; stroke-linejoin: miter; stroke-miterlimit: 4; fill: rgb(226,0,26); fill-rule: nonzero; opacity: 1;" vector-effect="non-scaling-stroke"  transform=" translate(-200.71, -462.17)" d="M 270.1323 394.59072 C 269.52826 394.59072 268.59083 395.03895 267.6725 395.95727999999997 L 230.09218 433.67425999999995 C 228.26100000000002 435.50544999999994 226.67578 438.39707999999996 226.67578 440.23373999999995 L 226.67578 444.3334 L 226.67578 522.2271499999999 C 226.67578 524.06381 228.261 524.06381 230.09218 522.2271499999999 L 267.6725 484.64683999999994 C 269.50915000000003 482.8101899999999 271.0889 479.78734999999995 271.0889 477.95070999999996 L 271.0889 441.05366999999995 L 271.0889 395.95727999999997 C 271.0889 395.03894999999994 270.73643000000004 394.59072 270.13230000000004 394.59072 z M 133.7499 441.05366999999995 C 131.91325 441.05366999999995 130.33351 442.49673999999993 130.33351 444.3333999999999 L 130.33351 526.32683 C 130.33351 528.1634799999999 131.91324999999998 529.7432299999999 133.7499 529.7432299999999 L 215.60667999999998 529.7432299999999 C 217.44332999999997 529.7432299999999 219.02307 528.1634799999999 219.02307 526.32683 L 219.02307 444.3334 C 219.02307 442.49674 217.44333 441.05367 215.60667999999998 441.05367 L 133.74989999999997 441.05367 z" stroke-linecap="round" />
</g>
<g transform="matrix(1 0 0 1 96.26 95)" id="w1kfRrgXVrHpeopjd42v6"  >
<path style="stroke: none; stroke-width: 1; stroke-dasharray: none; stroke-linecap: butt; stroke-dashoffset: 0; stroke-linejoin: miter; stroke-miterlimit: 4; fill: rgb(142,16,22); fill-rule: nonzero; opacity: 1;" vector-effect="non-scaling-stroke"  transform=" translate(-222.92, -485.4)" d="M 230.09218 441.05367 C 228.25553000000002 441.05367 226.67578 442.63341 226.67578 444.47006 L 226.67578 522.2271499999999 C 226.67578 523.1454799999999 227.03131 523.59372 227.63238 523.59372 C 228.23366000000001 523.59372 229.17385000000002 523.1454799999999 230.09218 522.2271499999999 L 267.6725 484.64683999999994 C 269.50915000000003 482.8101899999999 271.0889 479.78189999999995 271.0889 477.95070999999996 L 271.0889 441.05366999999995 L 230.09218 441.05366999999995 z M 218.06648 446.65655000000004 C 217.45973 446.65655000000004 216.525 447.11025000000006 215.60668 448.02310000000006 L 178.02635 485.74008000000003 C 176.19517000000002 487.60953 174.74661 490.46837000000005 174.74661 492.29955 L 174.74661 529.74323 L 215.60668 529.74323 C 217.44333 529.74323 219.02307000000002 528.16348 219.02307000000002 526.3268300000001 L 219.02307000000002 448.0231000000001 C 219.02307000000002 447.1102500000001 218.66754000000003 446.6565500000001 218.06648 446.6565500000001 z" stroke-linecap="round" />
</g>
</svg>